# 3ds Max Wavefront OBJ Exporter v0.97b - (c)2007 guruware
# File Created: 10.12.2011 15:26:22

#
# object B_04
#

v  -17.8412 65.6160 -10.3006
v  -17.8412 65.6160 10.3006
v  -0.0000 65.6160 20.6013
v  0.0000 65.5786 -20.6013
v  17.8412 65.6160 10.3007
v  17.8412 65.6160 -10.3006
v  0.0000 -0.1902 -20.6013
v  17.8412 -0.1902 -10.3006
v  17.8412 -0.1902 10.3007
v  -0.0000 -0.1902 20.6013
v  -17.8412 -0.1902 10.3006
v  -17.8412 -0.1902 -10.3006
# 12 vertices

vn 0.0012 1.0000 -0.0007
vn 0.0000 1.0000 -0.0000
vn 0.0000 1.0000 -0.0005
vn 0.0000 1.0000 -0.0009
vn -0.0012 1.0000 -0.0007
vn 0.0000 0.0000 -1.0000
vn 0.8662 0.0000 -0.4997
vn 0.8660 -0.0000 -0.5000
vn 0.8660 -0.0000 0.5000
vn 0.8660 0.0000 0.5000
vn -0.0000 -0.0000 1.0000
vn -0.0000 0.0000 1.0000
vn 0.0000 -1.0000 -0.0000
vn -0.8660 0.0000 -0.5000
vn -0.8662 0.0000 -0.4997
vn -0.8660 -0.0000 0.5000
vn -0.8660 0.0000 0.5000
# 17 vertex normals

vt 0.0404 0.8977 0.0000
vt 0.0404 0.7184 0.0000
vt 0.1956 0.6288 0.0000
vt 0.1956 0.9873 0.0000
vt 0.3509 0.7184 0.0000
vt 0.3509 0.8977 0.0000
vt 0.2499 0.0095 0.4838
vt 0.2501 0.6137 0.4846
vt 0.0831 0.6138 0.4845
vt 0.0829 0.0095 0.4838
vt 0.9169 0.0095 0.4838
vt 0.9171 0.6138 0.4845
vt 0.7501 0.6138 0.4845
vt 0.7499 0.0095 0.4838
vt 0.7374 0.7730 0.0000
vt 0.4016 0.8597 0.0000
vt 0.4480 0.6926 0.0000
vt 0.6159 0.6493 0.0000
vt 0.6910 0.9401 0.0000
vt 0.5231 0.9834 0.0000
vt 0.4169 0.0095 0.4838
vt 0.4171 0.6138 0.4845
vt 0.5831 0.6138 0.4845
vt 0.5829 0.0095 0.4838
vt 1.0720 0.0094 0.4838
vt 1.0721 0.6138 0.4845
# 26 texture coords

g B_04
s 1
f 1/1/1 2/2/2 3/3/3 4/4/4 
f 3/3/3 5/5/2 6/6/5 4/4/4 
s 2
f 7/7/6 4/8/6 6/9/7 8/10/8 
f 9/11/9 5/12/10 3/13/11 10/14/12 
s 1
f 7/15/13 10/16/13 11/17/13 12/18/13 
f 7/15/13 8/19/13 9/20/13 10/16/13 
s 2
f 12/21/14 1/22/15 4/8/6 7/7/6 
f 2/23/16 1/22/15 12/21/14 11/24/17 
f 10/14/12 3/13/11 2/23/16 11/24/17 
f 9/11/9 8/25/8 6/26/7 5/12/10 
# 10 polygons

