# 3ds Max Wavefront OBJ Exporter v0.97b - (c)2007 guruware
# File Created: 10.12.2011 15:26:01

#
# object B_03
#

v  20.6013 65.6160 -0.0000
v  17.8412 65.6160 -10.3006
v  -0.0000 65.6129 -0.0000
v  10.3006 65.6160 -17.8412
v  0.0000 65.5786 -20.6013
v  -10.3006 65.6160 -17.8412
v  -17.8412 65.6160 -10.3006
v  -20.6013 65.6160 -0.0000
v  -17.8412 65.6160 10.3006
v  -10.3007 65.6160 17.8412
v  -0.0000 65.6160 20.6013
v  10.3006 65.6160 17.8412
v  17.8412 65.6160 10.3007
v  20.6013 -0.1902 -0.0000
v  17.8412 -0.1902 -10.3006
v  10.3006 -0.1902 -17.8412
v  0.0000 -0.1902 -20.6013
v  -10.3006 -0.1902 -17.8412
v  -10.3007 -0.1902 17.8412
v  -0.0000 -0.1902 20.6013
v  17.8412 -0.1902 10.3007
v  10.3006 -0.1902 17.8412
v  -0.0000 0.0710 -0.0000
v  -17.8412 -0.1902 -10.3006
v  -20.6013 -0.1902 -0.0000
v  -17.8412 -0.1902 10.3006
# 26 vertices

vn -0.0002 1.0000 -0.0000
vn -0.0001 1.0000 0.0001
vn 0.0000 1.0000 -0.0003
vn -0.0016 1.0000 -0.0008
vn -0.0000 1.0000 -0.0017
vn 0.0016 1.0000 -0.0008
vn 0.0001 1.0000 0.0001
vn 0.0002 1.0000 0.0000
vn 0.0001 1.0000 -0.0001
vn 0.0000 1.0000 -0.0002
vn -0.0001 1.0000 -0.0001
vn 1.0000 -0.0000 0.0000
vn 0.8660 -0.0000 -0.5000
vn 0.5000 -0.0000 -0.8660
vn 0.5003 0.0000 -0.8659
vn -0.0000 0.0000 -1.0000
vn -0.5000 0.0000 -0.8660
vn -0.5003 -0.0000 -0.8659
vn -0.0000 -0.0000 1.0000
vn -0.5000 0.0000 0.8660
vn -0.5000 -0.0000 0.8660
vn 0.8660 -0.0000 0.5000
vn 0.5000 -0.0000 0.8660
vn -0.0127 -0.9999 -0.0000
vn 0.0000 -1.0000 0.0000
vn -0.0110 -0.9999 0.0063
vn -0.0063 -0.9999 0.0110
vn -0.0000 -0.9999 0.0127
vn 0.0063 -0.9999 0.0110
vn 0.0110 -0.9999 0.0063
vn 0.0127 -0.9999 0.0000
vn 0.0110 -0.9999 -0.0063
vn 0.0063 -0.9999 -0.0110
vn 0.0000 -0.9999 -0.0127
vn -0.0063 -0.9999 -0.0110
vn -0.0110 -0.9999 -0.0063
vn -0.8660 -0.0000 -0.5000
vn -0.8660 0.0000 -0.5000
vn -1.0000 -0.0000 -0.0000
vn -0.8660 0.0000 0.5000
# 40 vertex normals

vt 0.3749 0.8081 0.0000
vt 0.3509 0.8977 0.0000
vt 0.1956 0.8081 0.0000
vt 0.2853 0.9633 0.0000
vt 0.1956 0.9873 0.0000
vt 0.1060 0.9633 0.0000
vt 0.0404 0.8977 0.0000
vt 0.0164 0.8081 0.0000
vt 0.0404 0.7184 0.0000
vt 0.1060 0.6528 0.0000
vt 0.1956 0.6288 0.0000
vt 0.2853 0.6528 0.0000
vt 0.3509 0.7184 0.0000
vt -0.0002 0.0095 0.4838
vt 0.0829 0.0095 0.4838
vt 0.0831 0.6138 0.4845
vt 0.0000 0.6138 0.4845
vt 0.1669 0.0095 0.4838
vt 0.1671 0.6138 0.4845
vt 0.2499 0.0095 0.4838
vt 0.2501 0.6137 0.4846
vt 0.3329 0.0095 0.4838
vt 0.3331 0.6138 0.4845
vt 0.7501 0.6138 0.4845
vt 0.6671 0.6138 0.4845
vt 0.6669 0.0095 0.4838
vt 0.7499 0.0095 0.4838
vt 0.9169 0.0095 0.4838
vt 0.9171 0.6138 0.4845
vt 0.8331 0.6138 0.4845
vt 0.8329 0.0095 0.4838
vt 0.6128 0.9842 0.0000
vt 0.5695 0.8163 0.0000
vt 0.6910 0.9401 0.0000
vt 0.7366 0.8628 0.0000
vt 0.7374 0.7730 0.0000
vt 0.6932 0.6949 0.0000
vt 0.6159 0.6493 0.0000
vt 0.5262 0.6484 0.0000
vt 0.4480 0.6926 0.0000
vt 0.4024 0.7699 0.0000
vt 0.4016 0.8597 0.0000
vt 0.4457 0.9378 0.0000
vt 0.5231 0.9834 0.0000
vt 0.4169 0.0095 0.4838
vt 0.4171 0.6138 0.4845
vt 0.4999 0.0095 0.4838
vt 0.5001 0.6138 0.4845
vt 0.5829 0.0095 0.4838
vt 0.5831 0.6138 0.4845
vt 1.0000 0.0094 0.4838
vt 1.0002 0.6138 0.4845
# 52 texture coords

g B_03
s 1
f 1/1/1 2/2/2 3/3/3 
f 2/2/2 4/4/4 3/3/3 
f 4/4/4 5/5/5 3/3/3 
f 5/5/5 6/6/6 3/3/3 
f 6/6/6 7/7/7 3/3/3 
f 7/7/7 8/8/8 3/3/3 
f 8/8/8 9/9/9 3/3/3 
f 9/9/9 10/10/9 3/3/3 
f 10/10/9 11/11/10 3/3/3 
f 11/11/10 12/12/11 3/3/3 
f 12/12/11 13/13/11 3/3/3 
f 13/13/11 1/1/1 3/3/3 
s 2
f 14/14/12 15/15/13 2/16/13 1/17/12 
f 16/18/14 4/19/15 2/16/13 15/15/13 
f 17/20/16 5/21/16 4/19/15 16/18/14 
f 18/22/17 6/23/18 5/21/16 17/20/16 
f 11/24/19 10/25/20 19/26/21 20/27/19 
f 21/28/22 13/29/22 12/30/23 22/31/23 
s 1
f 14/32/24 23/33/25 15/34/26 
f 15/34/26 23/33/25 16/35/27 
f 16/35/27 23/33/25 17/36/28 
f 17/36/28 23/33/25 18/37/29 
f 18/37/29 23/33/25 24/38/30 
f 24/38/30 23/33/25 25/39/31 
f 25/39/31 23/33/25 26/40/32 
f 26/40/32 23/33/25 19/41/33 
f 19/41/33 23/33/25 20/42/34 
f 20/42/34 23/33/25 22/43/35 
f 22/43/35 23/33/25 21/44/36 
f 21/44/36 23/33/25 14/32/24 
s 2
f 24/45/37 7/46/38 6/23/18 18/22/17 
f 24/45/37 25/47/39 8/48/39 7/46/38 
f 26/49/40 9/50/40 8/48/39 25/47/39 
f 19/26/21 10/25/20 9/50/40 26/49/40 
f 22/31/23 12/30/23 11/24/19 20/27/19 
f 14/51/12 1/52/12 13/29/22 21/28/22 
# 12 polygons - 24 triangles

